<svg width="24" height="24" viewBox="0 0 24 24" fill="none" xmlns="http://www.w3.org/2000/svg">
<g clip-path="url(#clip0_10_136)">
<path d="M18.5235 9.35273C18.4331 9.30773 17.0817 9.12636 16.2441 9.04226C15.9623 9.01397 15.7216 8.94363 15.4789 8.85317C15.2301 8.76047 15.0398 8.59543 14.7745 8.47452C14.3427 8.27767 13.9188 8.15632 13.0043 7.89904C12.5506 7.77143 12.267 7.73176 11.8438 7.55812C11.0598 7.23646 10.7669 7.20175 10.4714 7.08038C10.1579 6.9516 9.69323 6.86901 9.10094 6.71673C8.69621 6.61267 8.37318 6.48899 7.96408 6.32308C7.66806 6.20303 7.40315 6.03534 7.16041 5.86079C6.94266 5.7042 6.67585 5.65624 6.38812 5.5651C6.13382 5.48455 5.90265 5.4435 5.7965 5.47351C5.54898 5.54347 5.87128 6.06353 5.96969 6.30626C6.07534 6.56684 6.18856 7.24175 6.30311 7.66994C6.37947 7.95537 6.50766 8.27542 6.64381 8.6543C6.76712 8.99748 6.90132 9.36637 6.98495 9.64706C7.10002 10.0332 7.21951 10.3364 7.30315 10.6169C7.37861 10.8699 7.44679 11.1392 7.56066 11.3973C7.66687 11.6382 7.73407 12.0474 7.90135 12.5101C8.08504 13.0183 8.14409 13.321 8.19727 13.5867C8.25254 13.8629 8.28045 14.1393 8.34114 14.3974C8.4026 14.6589 8.53773 14.9875 8.70433 15.3516C8.85706 15.6854 8.97684 15.9575 9.08344 16.2082C9.18469 16.4463 9.34049 16.7603 9.49231 17.0489C9.66677 17.3806 9.7505 17.5644 9.728 17.708C9.71683 17.7794 9.6605 17.8367 9.62232 17.8001C9.32431 17.5145 9.49322 17.0666 9.49277 16.2652C9.49251 15.8109 9.71959 15.4911 9.75801 15.2175C9.79458 14.9569 9.90142 14.6875 10.136 14.1429C10.2669 13.8389 10.356 13.5965 10.5376 13.3163C10.8074 12.9 10.9015 12.6419 11.053 12.354C11.2094 12.057 11.3406 11.7328 11.5678 11.5051C11.8083 11.2642 12.2488 11.081 12.5899 10.9594C13.1938 10.7441 13.4615 10.611 13.7193 10.5575C14.0558 10.4878 14.3398 10.3382 14.6511 10.2243C14.895 10.1352 15.0834 10.1105 15.2043 10.0653C15.7119 9.87539 13.1915 9.62547 12.9258 9.56524C12.5428 9.4784 11.996 9.15727 11.6456 9.01976C11.242 8.86142 10.8578 8.68634 10.5773 8.5352C10.294 8.3825 10.0696 8.17178 9.46504 7.77086C9.08803 7.52084 8.49591 7.27811 8.01726 7.16356C7.59982 7.06366 7.4177 7.01947 7.30428 7.01924C7.00646 7.01864 7.06859 8.13451 7.15155 8.82817C7.19859 9.22153 7.35588 9.51819 7.45451 9.86638C7.58887 10.3406 8.00499 11.1046 8.2575 11.6696C8.41126 12.0137 8.58319 12.3056 8.79502 12.6922C9.03692 13.1337 9.14321 13.5474 9.25776 13.8897C9.34319 14.145 9.41686 14.502 9.50754 14.739C9.75302 15.3807 10.566 12.9629 10.886 12.3019C11.0835 11.894 11.386 11.6574 11.9001 11.0521C12.1575 10.7491 12.2951 10.5055 12.4849 10.0968C12.5679 9.91817 11.7278 9.55228 10.5614 9.1434C9.81347 8.88121 9.29776 8.50543 9.06184 8.27019C9.00847 8.21697 8.94866 8.17178 8.94775 8.1411C8.92729 7.45047 10.916 8.26178 11.3847 8.63861C11.7537 8.93537 12.2179 9.185 12.9865 9.34409C14.2985 9.61564 15.2348 9.36818 15.4084 9.32273C15.7987 9.22056 16.0525 9.26182 16.333 9.22409C16.4607 9.20691 15.4884 9.26136 13.8827 9.32205C13.0221 9.35457 12.3306 9.06545 11.7531 8.89135C10.7512 8.58934 10.3278 8.68634 9.99415 8.61816C9.72335 8.56282 9.46413 8.39906 9.04002 8.21701C8.69003 8.06677 8.4641 7.91359 8.16818 7.76245C7.8656 7.6079 7.60043 7.33811 7.38747 7.13379C7.33675 7.08513 7.29678 7.03538 7.2436 6.99719C7.19042 6.95901 7.13042 6.92901 7.12951 7.14606C7.12664 7.83068 7.29542 8.42724 7.3861 8.74407C7.51697 9.20127 7.67316 9.86411 7.93044 10.5673C8.28552 11.5378 8.38591 11.9574 8.50001 12.3135C8.62954 12.7179 8.70501 12.9729 8.90116 13.6079C8.96229 13.8511 9.00775 14.0188 9.06071 14.1699C9.08366 14.2461 9.09866 14.3211 9.11412 14.4438" stroke="white" stroke-width="5" stroke-linecap="round" stroke-linejoin="round"/>
<path d="M14.185 13.14L19.829 10.938C21.454 10.304 21.367 7.976 19.699 7.465L5.38 3.083C3.97 2.652 2.65 3.971 3.082 5.381L7.464 19.699C7.974 21.367 10.304 21.454 10.937 19.829L13.139 14.185C13.2315 13.948 13.3721 13.7328 13.552 13.553C13.7318 13.3731 13.947 13.2325 14.184 13.14" stroke="black" stroke-width="1.5" stroke-linecap="round" stroke-linejoin="round"/>
</g>
<defs>
<clipPath id="clip0_10_136">
<rect width="24" height="24" fill="white"/>
</clipPath>
</defs>
</svg>
